<mxfile host="app.diagrams.net" agent="Mozilla/5.0 (X11; Linux x86_64; rv:128.0) Gecko/20100101 Firefox/128.0" version="28.0.7">
  <diagram name="Página-1" id="H2GqBvTz4f4qYNg7Nkob">
    <mxGraphModel dx="868" dy="492" grid="1" gridSize="10" guides="1" tooltips="1" connect="1" arrows="1" fold="1" page="1" pageScale="1" pageWidth="827" pageHeight="1169" math="0" shadow="0">
      <root>
        <mxCell id="0" />
        <mxCell id="1" parent="0" />
        <mxCell id="l4IoIhkVO5SlaGIGQMEU-1" value="Bloque" style="rounded=1;whiteSpace=wrap;html=1;labelBackgroundColor=none;" vertex="1" parent="1">
          <mxGeometry x="260" y="40" width="120" height="40" as="geometry" />
        </mxCell>
        <mxCell id="l4IoIhkVO5SlaGIGQMEU-2" value="Leer a" style="rounded=0;whiteSpace=wrap;html=1;labelBackgroundColor=none;" vertex="1" parent="1">
          <mxGeometry x="160" y="140" width="70" height="40" as="geometry" />
        </mxCell>
        <mxCell id="l4IoIhkVO5SlaGIGQMEU-3" value="&lt;div&gt;Leer b&lt;/div&gt;" style="rounded=0;whiteSpace=wrap;html=1;labelBackgroundColor=none;" vertex="1" parent="1">
          <mxGeometry x="250" y="140" width="70" height="40" as="geometry" />
        </mxCell>
        <mxCell id="l4IoIhkVO5SlaGIGQMEU-6" value="Iteración (a = b)" style="rounded=1;whiteSpace=wrap;html=1;labelBackgroundColor=none;" vertex="1" parent="1">
          <mxGeometry x="345" y="140" width="120" height="40" as="geometry" />
        </mxCell>
        <mxCell id="l4IoIhkVO5SlaGIGQMEU-7" value="Escribir a" style="rounded=0;whiteSpace=wrap;html=1;labelBackgroundColor=none;" vertex="1" parent="1">
          <mxGeometry x="490" y="140" width="70" height="40" as="geometry" />
        </mxCell>
        <mxCell id="l4IoIhkVO5SlaGIGQMEU-9" value="" style="endArrow=none;html=1;rounded=0;entryX=0.105;entryY=0.999;entryDx=0;entryDy=0;exitX=0.5;exitY=0;exitDx=0;exitDy=0;entryPerimeter=0;labelBackgroundColor=none;" edge="1" parent="1" source="l4IoIhkVO5SlaGIGQMEU-2" target="l4IoIhkVO5SlaGIGQMEU-1">
          <mxGeometry width="50" height="50" relative="1" as="geometry">
            <mxPoint x="180" y="140" as="sourcePoint" />
            <mxPoint x="230" y="90" as="targetPoint" />
          </mxGeometry>
        </mxCell>
        <mxCell id="l4IoIhkVO5SlaGIGQMEU-10" value="" style="endArrow=none;html=1;rounded=0;exitX=0.5;exitY=0;exitDx=0;exitDy=0;entryX=0.375;entryY=0.989;entryDx=0;entryDy=0;entryPerimeter=0;labelBackgroundColor=none;" edge="1" parent="1" source="l4IoIhkVO5SlaGIGQMEU-3" target="l4IoIhkVO5SlaGIGQMEU-1">
          <mxGeometry width="50" height="50" relative="1" as="geometry">
            <mxPoint x="290" y="140" as="sourcePoint" />
            <mxPoint x="340" y="80" as="targetPoint" />
          </mxGeometry>
        </mxCell>
        <mxCell id="l4IoIhkVO5SlaGIGQMEU-11" value="" style="endArrow=none;html=1;rounded=0;exitX=0.5;exitY=0;exitDx=0;exitDy=0;entryX=0.537;entryY=1.004;entryDx=0;entryDy=0;entryPerimeter=0;labelBackgroundColor=none;" edge="1" parent="1" source="l4IoIhkVO5SlaGIGQMEU-6" target="l4IoIhkVO5SlaGIGQMEU-1">
          <mxGeometry width="50" height="50" relative="1" as="geometry">
            <mxPoint x="400" y="130" as="sourcePoint" />
            <mxPoint x="450" y="80" as="targetPoint" />
          </mxGeometry>
        </mxCell>
        <mxCell id="l4IoIhkVO5SlaGIGQMEU-12" value="" style="endArrow=none;html=1;rounded=0;exitX=0.5;exitY=0;exitDx=0;exitDy=0;entryX=0.856;entryY=1.004;entryDx=0;entryDy=0;entryPerimeter=0;labelBackgroundColor=none;" edge="1" parent="1" source="l4IoIhkVO5SlaGIGQMEU-7" target="l4IoIhkVO5SlaGIGQMEU-1">
          <mxGeometry width="50" height="50" relative="1" as="geometry">
            <mxPoint x="520" y="120" as="sourcePoint" />
            <mxPoint x="570" y="70" as="targetPoint" />
          </mxGeometry>
        </mxCell>
        <mxCell id="l4IoIhkVO5SlaGIGQMEU-13" value="Selección (a &amp;lt; b)" style="rounded=1;whiteSpace=wrap;html=1;labelBackgroundColor=none;" vertex="1" parent="1">
          <mxGeometry x="310" y="220" width="120" height="40" as="geometry" />
        </mxCell>
        <mxCell id="l4IoIhkVO5SlaGIGQMEU-14" value="b &lt;span class=&quot;math inline&quot;&gt;&lt;span class=&quot;katex&quot;&gt;&lt;span aria-hidden=&quot;true&quot; class=&quot;katex-html&quot;&gt;&lt;span class=&quot;base&quot;&gt;&lt;span class=&quot;mrel&quot;&gt;⟵ b - a&lt;br&gt;&lt;/span&gt;&lt;/span&gt;&lt;/span&gt;&lt;/span&gt;&lt;/span&gt;" style="rounded=0;whiteSpace=wrap;html=1;labelBackgroundColor=none;" vertex="1" parent="1">
          <mxGeometry x="285" y="310" width="70" height="40" as="geometry" />
        </mxCell>
        <mxCell id="l4IoIhkVO5SlaGIGQMEU-15" value="a &lt;span class=&quot;math inline&quot;&gt;&lt;span class=&quot;katex&quot;&gt;&lt;span aria-hidden=&quot;true&quot; class=&quot;katex-html&quot;&gt;&lt;span class=&quot;base&quot;&gt;&lt;span class=&quot;mrel&quot;&gt;⟵ a - b&lt;br&gt;&lt;/span&gt;&lt;/span&gt;&lt;/span&gt;&lt;/span&gt;&lt;/span&gt;" style="rounded=0;whiteSpace=wrap;html=1;labelBackgroundColor=none;" vertex="1" parent="1">
          <mxGeometry x="379" y="310" width="70" height="40" as="geometry" />
        </mxCell>
        <mxCell id="l4IoIhkVO5SlaGIGQMEU-16" value="" style="endArrow=none;html=1;rounded=0;entryX=0.5;entryY=1;entryDx=0;entryDy=0;exitX=0.5;exitY=0;exitDx=0;exitDy=0;labelBackgroundColor=none;" edge="1" parent="1" source="l4IoIhkVO5SlaGIGQMEU-13" target="l4IoIhkVO5SlaGIGQMEU-6">
          <mxGeometry width="50" height="50" relative="1" as="geometry">
            <mxPoint x="364" y="230" as="sourcePoint" />
            <mxPoint x="414" y="180" as="targetPoint" />
          </mxGeometry>
        </mxCell>
        <mxCell id="l4IoIhkVO5SlaGIGQMEU-17" value="" style="endArrow=none;html=1;rounded=0;entryX=0.25;entryY=1;entryDx=0;entryDy=0;exitX=0.5;exitY=0;exitDx=0;exitDy=0;labelBackgroundColor=none;" edge="1" parent="1" source="l4IoIhkVO5SlaGIGQMEU-14" target="l4IoIhkVO5SlaGIGQMEU-13">
          <mxGeometry width="50" height="50" relative="1" as="geometry">
            <mxPoint x="330" y="320" as="sourcePoint" />
            <mxPoint x="380" y="270" as="targetPoint" />
          </mxGeometry>
        </mxCell>
        <mxCell id="l4IoIhkVO5SlaGIGQMEU-19" value="V" style="edgeLabel;html=1;align=center;verticalAlign=middle;resizable=0;points=[];labelBackgroundColor=none;" vertex="1" connectable="0" parent="l4IoIhkVO5SlaGIGQMEU-17">
          <mxGeometry x="0.1943" y="-1" relative="1" as="geometry">
            <mxPoint x="-13" as="offset" />
          </mxGeometry>
        </mxCell>
        <mxCell id="l4IoIhkVO5SlaGIGQMEU-18" value="" style="endArrow=none;html=1;rounded=0;entryX=0.75;entryY=1;entryDx=0;entryDy=0;exitX=0.5;exitY=0;exitDx=0;exitDy=0;labelBackgroundColor=none;" edge="1" parent="1" source="l4IoIhkVO5SlaGIGQMEU-15" target="l4IoIhkVO5SlaGIGQMEU-13">
          <mxGeometry width="50" height="50" relative="1" as="geometry">
            <mxPoint x="364" y="330" as="sourcePoint" />
            <mxPoint x="414" y="280" as="targetPoint" />
          </mxGeometry>
        </mxCell>
        <mxCell id="l4IoIhkVO5SlaGIGQMEU-20" value="F" style="edgeLabel;html=1;align=center;verticalAlign=middle;resizable=0;points=[];labelBackgroundColor=none;" vertex="1" connectable="0" parent="l4IoIhkVO5SlaGIGQMEU-18">
          <mxGeometry x="0.1756" relative="1" as="geometry">
            <mxPoint x="8" as="offset" />
          </mxGeometry>
        </mxCell>
      </root>
    </mxGraphModel>
  </diagram>
</mxfile>
